<svg width="80" height="18" viewBox="0 0 80 18" fill="none" xmlns="http://www.w3.org/2000/svg">
<path d="M0.000144541 17.28V0.239998H3.40814V8.328L2.13614 7.176H9.96015L8.68815 8.328V0.239998H12.0961V17.28H8.68815V9.096L9.96015 10.248H2.13614L3.40814 9.096V17.28H0.000144541ZM19.5748 17.568C18.3748 17.568 17.3108 17.296 16.3828 16.752C15.4708 16.192 14.7508 15.408 14.2228 14.4C13.7108 13.392 13.4548 12.208 13.4548 10.848C13.4548 9.52 13.7108 8.352 14.2228 7.344C14.7348 6.336 15.4468 5.552 16.3588 4.992C17.2708 4.416 18.3268 4.128 19.5268 4.128C20.7108 4.128 21.7508 4.408 22.6468 4.968C23.5588 5.528 24.2708 6.32 24.7828 7.344C25.2948 8.352 25.5508 9.544 25.5508 10.92V11.736H16.8148C16.8948 12.696 17.1828 13.432 17.6788 13.944C18.1908 14.44 18.8468 14.688 19.6468 14.688C20.2388 14.688 20.7428 14.552 21.1588 14.28C21.5748 13.992 21.8628 13.608 22.0228 13.128L25.2868 13.344C24.8548 14.688 24.1508 15.728 23.1748 16.464C22.2148 17.2 21.0148 17.568 19.5748 17.568ZM16.8628 9.504H22.0708C21.9908 8.672 21.7188 8.048 21.2548 7.632C20.7908 7.216 20.2068 7.008 19.5028 7.008C18.7668 7.008 18.1668 7.224 17.7028 7.656C17.2548 8.072 16.9748 8.688 16.8628 9.504ZM31.6134 17.28V4.32C31.6134 3.824 31.4854 3.456 31.2294 3.216C30.9734 2.96 30.6054 2.832 30.1254 2.832H27.3414V0.239998H30.7014C32.0934 0.239998 33.1334 0.591998 33.8214 1.296C34.5254 1.984 34.8774 3.016 34.8774 4.392V17.28H31.6134ZM26.8614 17.28V14.688H38.9574V17.28H26.8614ZM45.548 17.28V4.416H48.812V17.28H45.548ZM40.772 17.28V14.688H52.868V17.28H40.772ZM41.012 7.008V4.416H48.212V7.008H41.012ZM45.452 2.832V-1.90735e-06H48.764V2.832H45.452ZM53.3866 17.28L57.9466 10.704L53.5786 4.416H57.1306L59.7706 8.472L62.3866 4.416H65.9386L61.6426 10.704L66.1546 17.28H62.6266L59.7706 12.888L56.9386 17.28H53.3866ZM71.3773 17.568C70.5933 17.568 69.8733 17.424 69.2173 17.136C68.5613 16.848 68.0413 16.432 67.6573 15.888C67.2893 15.344 67.1053 14.696 67.1053 13.944C67.1053 12.856 67.4493 12.008 68.1373 11.4C68.8413 10.792 69.8013 10.36 71.0173 10.104L74.8813 9.264C74.8813 8.448 74.7133 7.824 74.3773 7.392C74.0573 6.96 73.5293 6.744 72.7933 6.744C72.1533 6.744 71.6573 6.904 71.3053 7.224C70.9533 7.544 70.7213 7.968 70.6093 8.496L67.2493 8.304C67.4893 7.04 68.0893 6.032 69.0493 5.28C70.0253 4.512 71.2573 4.128 72.7453 4.128C74.6013 4.128 75.9613 4.6 76.8253 5.544C77.7053 6.472 78.1453 7.776 78.1453 9.456V13.992C78.1453 14.312 78.2013 14.536 78.3133 14.664C78.4253 14.776 78.5933 14.832 78.8173 14.832H79.3453V17.28C79.2493 17.296 79.0893 17.312 78.8653 17.328C78.6413 17.36 78.4093 17.376 78.1693 17.376C77.5293 17.376 76.9853 17.264 76.5373 17.04C76.0893 16.816 75.7453 16.488 75.5053 16.056C75.2813 15.624 75.1533 15.104 75.1213 14.496H75.4813C75.4013 15.072 75.1853 15.6 74.8333 16.08C74.4813 16.544 74.0093 16.912 73.4173 17.184C72.8253 17.44 72.1453 17.568 71.3773 17.568ZM72.0493 15.12C72.6573 15.12 73.1693 15.016 73.5853 14.808C74.0013 14.584 74.3213 14.264 74.5453 13.848C74.7693 13.416 74.8813 12.912 74.8813 12.336V11.568L72.0253 12.192C71.4493 12.32 71.0413 12.504 70.8013 12.744C70.5613 12.984 70.4413 13.328 70.4413 13.776C70.4413 14.192 70.5773 14.52 70.8493 14.76C71.1213 15 71.5213 15.12 72.0493 15.12Z" fill="white"/>
</svg>
