<svg width="36" height="36" viewBox="0 0 36 36" fill="none" xmlns="http://www.w3.org/2000/svg">
<g opacity="0.6">
<path d="M3.375 10.125C3.375 11.9152 4.08616 13.6321 5.35203 14.898C6.6179 16.1638 8.33479 16.875 10.125 16.875C11.9152 16.875 13.6321 16.1638 14.898 14.898C16.1638 13.6321 16.875 11.9152 16.875 10.125C16.875 8.33479 16.1638 6.6179 14.898 5.35203C13.6321 4.08616 11.9152 3.375 10.125 3.375C8.33479 3.375 6.6179 4.08616 5.35203 5.35203C4.08616 6.6179 3.375 8.33479 3.375 10.125ZM19.125 25.875C19.125 27.6652 19.8362 29.3821 21.102 30.648C22.3679 31.9138 24.0848 32.625 25.875 32.625C27.6652 32.625 29.3821 31.9138 30.648 30.648C31.9138 29.3821 32.625 27.6652 32.625 25.875C32.625 24.0848 31.9138 22.3679 30.648 21.102C29.3821 19.8362 27.6652 19.125 25.875 19.125C24.0848 19.125 22.3679 19.8362 21.102 21.102C19.8362 22.3679 19.125 24.0848 19.125 25.875ZM3.375 25.875C3.375 27.6652 4.08616 29.3821 5.35203 30.648C6.6179 31.9138 8.33479 32.625 10.125 32.625C11.9152 32.625 13.6321 31.9138 14.898 30.648C16.1638 29.3821 16.875 27.6652 16.875 25.875C16.875 24.0848 16.1638 22.3679 14.898 21.102C13.6321 19.8362 11.9152 19.125 10.125 19.125C8.33479 19.125 6.6179 19.8362 5.35203 21.102C4.08616 22.3679 3.375 24.0848 3.375 25.875Z" fill="white"/>
<path fill-rule="evenodd" clip-rule="evenodd" d="M27.375 3.375V8.625H32.625V11.625H27.375V16.875H24.375V11.625H19.125V8.625H24.375V3.375H27.375Z" fill="white"/>
</g>
</svg>
