<svg width="36" height="36" viewBox="0 0 36 36" fill="none" xmlns="http://www.w3.org/2000/svg">
<g opacity="0.6">
<path d="M30.3085 5.0685C29.9253 4.54494 29.4241 4.11913 28.8455 3.82565C28.2669 3.53218 27.6273 3.37933 26.9785 3.3795L9.02648 3.375C7.71098 3.375 6.47198 4.0035 5.69648 5.0655L3.31298 8.3205L3.30098 8.34C2.74148 9.1395 2.18948 10.143 1.97198 11.193C1.74698 12.276 1.86998 13.506 2.80748 14.511L2.98748 14.691C3.90698 15.582 5.17748 16.1265 6.56798 16.1265C8.12497 16.1265 9.54397 15.4365 10.48 14.3415C11.374 15.4305 12.73 16.1265 14.2495 16.1265C14.9661 16.1275 15.674 15.9699 16.3225 15.6652C16.9711 15.3605 17.5443 14.9162 18.001 14.364C18.4575 14.916 19.0304 15.3602 19.6787 15.6649C20.327 15.9696 21.0347 16.1272 21.751 16.1265C22.4721 16.1272 23.1844 15.9673 23.8361 15.6586C24.4878 15.3499 25.0627 14.9 25.519 14.3415C26.0037 14.9045 26.6047 15.3559 27.2805 15.6645C27.9564 15.9732 28.691 16.1318 29.434 16.1295C30.919 16.1295 32.2645 15.51 33.1945 14.5125L33.3595 14.322C34.1455 13.3545 34.2385 12.21 34.0285 11.1945C33.838 10.275 33.394 9.393 32.911 8.652L32.701 8.343L32.6875 8.3235L30.3085 5.0685ZM10.4605 16.83C11.5703 17.5878 12.8819 17.9955 14.2258 18.0003C15.5697 18.0051 16.8842 17.6069 17.9995 16.857C19.1099 17.6006 20.4161 17.9979 21.7525 17.9985L22.1425 17.9865C23.3574 17.9146 24.5303 17.5155 25.537 16.8315C26.659 17.574 28.006 18.0015 29.434 18.0015L29.809 17.991C30.5153 17.9545 31.2121 17.8119 31.876 17.568V28.4985C31.876 29.0402 31.7693 29.5766 31.562 30.0771C31.3547 30.5775 31.0508 31.0323 30.6678 31.4153C30.2847 31.7984 29.83 32.1022 29.3295 32.3095C28.8291 32.5168 28.2927 32.6235 27.751 32.6235H8.25098C7.15696 32.6235 6.10775 32.1889 5.33416 31.4153C4.56057 30.6417 4.12598 29.5925 4.12598 28.4985V17.565C4.88948 17.8455 5.71598 17.9985 6.57098 17.9985L6.96398 17.988C8.2115 17.9187 9.41818 17.519 10.4605 16.83ZM23.338 24.7545C23.2399 24.644 23.121 24.5538 22.9881 24.4893C22.8552 24.4247 22.7108 24.3869 22.5633 24.3782C22.4158 24.3694 22.268 24.3898 22.1284 24.4381C21.9887 24.4865 21.86 24.5619 21.7495 24.66C20.9695 25.353 19.621 25.875 17.9995 25.8765C16.3795 25.8765 15.0295 25.353 14.2495 24.6615C14.0254 24.4724 13.7363 24.3784 13.4439 24.3993C13.1514 24.4202 12.8787 24.5544 12.6838 24.7734C12.4888 24.9924 12.3871 25.2788 12.4002 25.5717C12.4133 25.8646 12.5402 26.1408 12.754 26.3415C14.026 27.471 15.9445 28.1265 17.9995 28.1265C20.0545 28.1265 21.9745 27.471 23.245 26.3415C23.4675 26.1433 23.6023 25.8648 23.6198 25.5672C23.6372 25.2697 23.5359 24.9774 23.338 24.7545Z" fill="white"/>
</g>
</svg>
