<svg width="36" height="36" viewBox="0 0 36 36" fill="none" xmlns="http://www.w3.org/2000/svg">
<g opacity="0.6">
<path d="M12.375 15.7501C12.3752 14.7381 12.6484 13.745 13.1657 12.8753C13.6831 12.0057 14.4255 11.2917 15.3147 10.8086C16.2038 10.3255 17.2069 10.0912 18.218 10.1304C19.2292 10.1697 20.211 10.4809 21.0601 11.0314C21.9092 11.582 22.594 12.3513 23.0425 13.2585C23.4909 14.1656 23.6864 15.1769 23.6082 16.1858C23.53 17.1947 23.1811 18.1638 22.5983 18.991C22.0154 19.8183 21.2202 20.4729 20.2965 20.8861C24.3075 21.8206 27.375 25.1431 27.375 29.2486C27.375 29.5469 27.2565 29.8331 27.0455 30.0441C26.8345 30.255 26.5484 30.3736 26.25 30.3736H9.75C9.45163 30.3736 9.16548 30.255 8.9545 30.0441C8.74353 29.8331 8.625 29.5469 8.625 29.2486C8.625 25.1431 11.6925 21.8206 15.7035 20.8861C14.7118 20.4429 13.8697 19.7221 13.2787 18.8107C12.6878 17.8993 12.3734 16.8363 12.3735 15.7501" fill="white"/>
<path d="M11.25 5.62207C9.96161 5.62148 8.71207 6.0632 7.71029 6.87337C6.7085 7.68355 6.01521 8.81306 5.74631 10.0731C5.47741 11.3331 5.64921 12.6472 6.23298 13.7958C6.81675 14.9443 7.77711 15.8577 8.9535 16.3831C4.9425 17.3176 1.875 20.6401 1.875 24.7456C1.875 25.3666 2.379 25.8706 3 25.8706H6.9375C7.758 23.5006 9.417 21.5401 11.5185 20.2216C10.8029 19.1845 10.3465 17.9909 10.1875 16.741C10.0286 15.491 10.1718 14.2212 10.6051 13.038C11.0385 11.8549 11.7493 10.7929 12.6779 9.94126C13.6065 9.08962 14.7259 8.47315 15.942 8.14357C15.4291 7.36832 14.7322 6.73225 13.9134 6.29224C13.0946 5.85222 12.1795 5.62197 11.25 5.62207ZM29.0625 25.8706C28.242 23.5006 26.583 21.5401 24.4815 20.2216C25.1968 19.1845 25.653 17.9911 25.8117 16.7413C25.9705 15.4915 25.8272 14.2219 25.3939 13.039C24.9606 11.856 24.2499 10.7943 23.3215 9.94273C22.393 9.09119 21.2739 8.47473 20.058 8.14507C20.5398 7.41771 21.1843 6.8124 21.9404 6.37701C22.6965 5.94161 23.5435 5.68807 24.4144 5.63642C25.2854 5.58478 26.1564 5.73644 26.9586 6.07943C27.7609 6.42241 28.4724 6.94732 29.0368 7.61264C29.6012 8.27796 30.0031 9.06547 30.2108 9.91289C30.4184 10.7603 30.4261 11.6444 30.2332 12.4953C30.0402 13.3462 29.652 14.1405 29.0992 14.8156C28.5464 15.4906 27.8442 16.0277 27.048 16.3846C31.0575 17.3176 34.125 20.6386 34.125 24.7456C34.125 25.0439 34.0065 25.3301 33.7955 25.5411C33.5845 25.752 33.2984 25.8706 33 25.8706H29.0625Z" fill="white"/>
</g>
</svg>
