<svg width="834" height="171" viewBox="0 0 834 171" fill="none" xmlns="http://www.w3.org/2000/svg">
<path opacity="0.2" d="M-0.000191301 181.44V2.51993H35.7838V87.4439L22.4278 75.3479H104.58L91.2238 87.4439V2.51993H127.008V181.44H91.2238V95.5079L104.58 107.604H22.4278L35.7838 95.5079V181.44H-0.000191301ZM205.533 184.464C192.933 184.464 181.761 181.608 172.017 175.896C162.441 170.016 154.881 161.784 149.337 151.2C143.961 140.616 141.273 128.184 141.273 113.904C141.273 99.9599 143.961 87.6959 149.337 77.1119C154.713 66.5279 162.189 58.2959 171.765 52.4159C181.341 46.3679 192.429 43.3439 205.029 43.3439C217.461 43.3439 228.381 46.2839 237.789 52.1639C247.365 58.0439 254.841 66.3599 260.217 77.1119C265.593 87.6959 268.281 100.212 268.281 114.66V123.228H176.553C177.393 133.308 180.417 141.036 185.625 146.412C191.001 151.62 197.889 154.224 206.289 154.224C212.505 154.224 217.797 152.796 222.165 149.94C226.533 146.916 229.557 142.884 231.237 137.844L265.509 140.112C260.973 154.224 253.581 165.144 243.333 172.872C233.253 180.6 220.653 184.464 205.533 184.464ZM177.057 99.7919H231.741C230.901 91.0559 228.045 84.5039 223.173 80.1359C218.301 75.7679 212.169 73.5839 204.777 73.5839C197.049 73.5839 190.749 75.8519 185.877 80.3879C181.173 84.7559 178.233 91.2239 177.057 99.7919ZM331.939 181.44V45.3599C331.939 40.1519 330.595 36.2879 327.907 33.7679C325.219 31.0799 321.355 29.7359 316.315 29.7359H287.083V2.51993H322.363C336.979 2.51993 347.899 6.21593 355.123 13.6079C362.515 20.8319 366.211 31.6679 366.211 46.1159V181.44H331.939ZM282.043 181.44V154.224H409.051V181.44H282.043ZM478.253 181.44V46.3679H512.525V181.44H478.253ZM428.105 181.44V154.224H555.113V181.44H428.105ZM430.625 73.5839V46.3679H506.225V73.5839H430.625ZM477.245 29.7359V-6.58035e-05H512.021V29.7359H477.245ZM560.558 181.44L608.438 112.392L562.574 46.3679H599.87L627.59 88.9559L655.058 46.3679H692.354L647.246 112.392L694.622 181.44H657.578L627.59 135.324L597.854 181.44H560.558ZM749.46 184.464C741.228 184.464 733.668 182.952 726.78 179.928C719.892 176.904 714.432 172.536 710.4 166.824C706.536 161.112 704.604 154.308 704.604 146.412C704.604 134.988 708.216 126.084 715.44 119.7C722.832 113.316 732.912 108.78 745.68 106.092L786.252 97.2719C786.252 88.7039 784.488 82.1519 780.96 77.6159C777.6 73.0799 772.056 70.8119 764.328 70.8119C757.608 70.8119 752.4 72.4919 748.704 75.8519C745.008 79.2119 742.572 83.6639 741.396 89.2079L706.116 87.1919C708.636 73.9199 714.936 63.3359 725.016 55.4399C735.264 47.3759 748.2 43.3439 763.824 43.3439C783.312 43.3439 797.592 48.2999 806.664 58.2119C815.904 67.9559 820.524 81.6479 820.524 99.2879V146.916C820.524 150.276 821.112 152.628 822.288 153.972C823.464 155.148 825.228 155.736 827.58 155.736H833.124V181.44C832.116 181.608 830.436 181.776 828.084 181.944C825.732 182.28 823.296 182.448 820.776 182.448C814.056 182.448 808.344 181.272 803.64 178.92C798.936 176.568 795.324 173.124 792.804 168.588C790.452 164.052 789.108 158.592 788.772 152.208H792.552C791.712 158.256 789.444 163.8 785.748 168.84C782.052 173.712 777.096 177.576 770.88 180.432C764.664 183.12 757.524 184.464 749.46 184.464ZM756.516 158.76C762.9 158.76 768.276 157.668 772.644 155.484C777.012 153.132 780.372 149.772 782.724 145.404C785.076 140.868 786.252 135.576 786.252 129.528V121.464L756.264 128.016C750.216 129.36 745.932 131.292 743.412 133.812C740.892 136.332 739.632 139.944 739.632 144.648C739.632 149.016 741.06 152.46 743.916 154.98C746.772 157.5 750.972 158.76 756.516 158.76Z" fill="white"/>
</svg>
